<svg width="200" height="200" version="1.1" viewBox="0 0 52.9 52.9" xmlns="http://www.w3.org/2000/svg">
	<circle id="background" cx="26.5" cy="26.5" r="26.5"/>
	<ellipse id="cell16" cx="18" cy="46.2" rx="3.67" ry="3.67"/>
	<ellipse id="cell15" cx="10.5" cy="42.2" rx="3.66" ry="3.67"/>
	<ellipse id="cell14" cx="5.65" cy="35.3" rx="3.66" ry="3.67"/>
	<ellipse id="cell13" cx="4.39" cy="26.5" rx="3.66" ry="3.67"/>
	<ellipse id="cell12" cx="5.86" cy="18.3" rx="3.66" ry="3.67"/>
	<ellipse id="cell11" cx="10.9" cy="11.1" rx="3.66" ry="3.67"/>
	<ellipse id="cell10" cx="17.4" cy="6.93" rx="3.66" ry="3.67"/>
	<ellipse id="cell9" cx="26.2" cy="4.72" rx="3.66" ry="3.67"/>
	<ellipse id="cell8" cx="34.3" cy="5.88" rx="3.66" ry="3.67"/>
	<ellipse id="cell7" cx="41.4" cy="10.3" rx="3.66" ry="3.67"/>
	<ellipse id="cell6" cx="46.9" cy="16.6" rx="3.66" ry="3.67"/>
	<ellipse id="cell5" cx="48.1" cy="24.8" rx="3.66" ry="3.67"/>
	<ellipse id="cell4" cx="47.7" cy="32.8" rx="3.66" ry="3.67"/>
	<ellipse id="cell3" cx="42.9" cy="40.5" rx="3.66" ry="3.67"/>
	<ellipse id="cell2" cx="36.3" cy="46.1" rx="3.56" ry="3.57"/>
	<ellipse id="cell1" cx="27" cy="48.1" rx="3.66" ry="3.67"/>
</svg>
