<svg aria-hidden="true" style="position: absolute; width: 0; height: 0; overflow: hidden;" version="1.1" xmlns="http://www.w3.org/2000/svg" xmlns:xlink="http://www.w3.org/1999/xlink">
<defs>
<symbol id="icon-drumsticks" viewBox="0 0 32 32">
<path d="M31.353 27.875c-0.003-0.003-0.005-0.005-0.008-0.008l-12.291-11.912 9.477-9.779c0.817-0.084 1.64-0.494 2.298-1.151 0.619-0.618 1.022-1.389 1.136-2.17 0.123-0.846-0.113-1.638-0.649-2.173-0.44-0.44-1.055-0.682-1.733-0.682-0.917 0-1.869 0.426-2.611 1.168-0.663 0.663-1.072 1.49-1.152 2.312l-9.819 9.516-9.819-9.516c-0.080-0.822-0.489-1.649-1.152-2.312-0.618-0.618-1.389-1.021-2.17-1.135-0.847-0.123-1.639 0.113-2.174 0.649-0.536 0.535-0.773 1.328-0.65 2.174 0.114 0.781 0.517 1.551 1.136 2.17 0.66 0.66 1.481 1.068 2.298 1.151l9.477 9.778-12.291 11.912c-0.003 0.003-0.005 0.005-0.008 0.008-0.444 0.444-0.672 1.046-0.641 1.695 0.030 0.623 0.297 1.218 0.752 1.674 0.48 0.481 1.132 0.756 1.788 0.756 0 0 0 0 0 0 0.605 0 1.167-0.229 1.582-0.644 0.003-0.003 0.005-0.005 0.008-0.008l11.864-12.242 11.864 12.242c0.003 0.003 0.005 0.005 0.008 0.008 0.418 0.418 0.975 0.644 1.579 0.644 0.039 0 0.077-0.001 0.116-0.003 0.624-0.030 1.218-0.297 1.674-0.753s0.723-1.050 0.753-1.674c0.031-0.649-0.197-1.251-0.641-1.695zM4.422 5.109c-0.128-0.211-0.359-0.344-0.61-0.344-0.010 0-0.020 0-0.030 0-0.534 0-1.131-0.279-1.602-0.75-0.397-0.397-0.664-0.895-0.733-1.367-0.034-0.232-0.047-0.666 0.247-0.959s0.727-0.28 0.959-0.246c0.472 0.069 0.97 0.336 1.367 0.732 0.477 0.477 0.757 1.083 0.749 1.623-0.003 0.231 0.107 0.443 0.287 0.577l9.919 9.613-1.004 0.973-9.548-9.853zM3.116 30.35c-0.186 0.184-0.413 0.223-0.57 0.223-0.28 0-0.564-0.123-0.779-0.338-0.204-0.204-0.324-0.465-0.337-0.733-0.011-0.241 0.067-0.459 0.222-0.616l25.27-24.49c0.194-0.133 0.312-0.356 0.309-0.598-0.008-0.539 0.272-1.146 0.749-1.623 0.47-0.47 1.068-0.75 1.602-0.75 0.21 0 0.506 0.046 0.724 0.264 0.293 0.292 0.28 0.726 0.246 0.958-0.069 0.472-0.336 0.97-0.733 1.367-0.47 0.47-1.069 0.75-1.603 0.75l-0.020-0c-0.003-0-0.006-0-0.010-0-0.252 0-0.482 0.132-0.61 0.344l-24.461 25.241zM30.569 29.503c-0.013 0.268-0.132 0.528-0.337 0.733s-0.465 0.324-0.733 0.337c-0.24 0.012-0.459-0.067-0.616-0.222l-11.89-12.27 1.067-1.101 12.286 11.908c0.154 0.156 0.233 0.375 0.222 0.616z"></path>
</symbol>
<symbol id="icon-metronome" viewBox="0 0 32 32">
<path d="M28.724 4.752c-0.040-0.207-0.169-0.387-0.354-0.489l-1.147-0.639 0.54-0.969c0.192-0.344 0.068-0.779-0.276-0.97s-0.779-0.068-0.97 0.276l-0.54 0.969-1.147-0.639c-0.184-0.103-0.405-0.118-0.602-0.043s-0.351 0.234-0.42 0.434l-1.407 4.088c-0.112 0.327 0.025 0.687 0.327 0.855l0.483 0.269-2.356 4.229-2.044-10.38c-0.192-0.978-1.124-1.744-2.121-1.744h-5.712c-0.996 0-1.928 0.766-2.121 1.744l-4.16 21.128c-0 0.001-0 0.002-0.001 0.004l-1.399 7.106c-0.102 0.516 0.021 1.033 0.336 1.416s0.798 0.603 1.324 0.603h17.752c0.526 0 1.009-0.22 1.324-0.603s0.438-0.9 0.336-1.416l-1.399-7.107c-0-0-0-0-0-0l-1.69-8.583 3.176-5.701 0.483 0.269c0.109 0.061 0.229 0.090 0.347 0.090 0.209 0 0.413-0.091 0.553-0.262l2.735-3.348c0.134-0.163 0.188-0.378 0.148-0.585zM10.258 2.019c0.061-0.31 0.405-0.593 0.721-0.593h5.712c0.316 0 0.66 0.282 0.721 0.593l2.369 12.033-3.068 5.508c-0.629-0.27-1.337-0.472-2.165-0.547v-1.52h1.117c0.394 0 0.713-0.319 0.713-0.713s-0.319-0.713-0.713-0.713h-1.117v-4.2h1.117c0.394 0 0.713-0.319 0.713-0.713s-0.319-0.713-0.713-0.713h-1.117v-4.2h1.117c0.394 0 0.713-0.319 0.713-0.713s-0.319-0.713-0.713-0.713h-1.117v-1.253c0-0.394-0.319-0.713-0.713-0.713s-0.713 0.319-0.713 0.713v1.253h-1.117c-0.394 0-0.713 0.319-0.713 0.713s0.319 0.713 0.713 0.713h1.117v4.2h-1.117c-0.394 0-0.713 0.319-0.713 0.713s0.319 0.713 0.713 0.713h1.117v4.2h-1.117c-0.394 0-0.713 0.319-0.713 0.713s0.319 0.713 0.713 0.713h1.117v1.52c-1.982 0.18-3.28 1.089-4.44 1.902-0.804 0.564-1.526 1.069-2.397 1.281l3.973-20.178zM22.934 30.491c-0.044 0.053-0.123 0.083-0.222 0.083h-17.752c-0.099 0-0.178-0.029-0.222-0.083s-0.058-0.137-0.038-0.234l1.292-6.56c1.442-0.162 2.492-0.898 3.511-1.612 1.229-0.862 2.39-1.676 4.334-1.676s3.105 0.814 4.334 1.676c1.019 0.715 2.070 1.45 3.511 1.612l1.292 6.56c0.019 0.098 0.006 0.181-0.038 0.234zM21.385 22.197c-0.871-0.212-1.593-0.717-2.397-1.281-0.324-0.227-0.658-0.461-1.015-0.685l2.235-4.012 1.177 5.979zM25.114 7.32l-1.169-0.651 0.935-2.717 2.052 1.143-1.818 2.226z"></path>
</symbol>
<symbol id="icon-pulse" viewBox="0 0 32 32">
<path d="M6.239 12.75h-5.392c-0.468 0-0.847-0.379-0.847-0.847s0.379-0.847 0.847-0.847h5.859c0.291 0 0.562 0.149 0.717 0.396l1.688 2.679 2.599-6.634c0.131-0.335 0.46-0.548 0.818-0.538 0.359 0.012 0.671 0.25 0.779 0.593l2.472 7.872 0.896-3.718c0.092-0.381 0.432-0.649 0.824-0.649h4.207c0.468 0 0.847 0.379 0.847 0.847s-0.379 0.847-0.847 0.847h-3.539l-1.456 6.042c-0.089 0.37-0.414 0.636-0.795 0.648-0.010 0-0.019 0-0.029 0-0.369 0-0.697-0.239-0.808-0.594l-2.667-8.495-2.334 5.957c-0.117 0.298-0.391 0.504-0.709 0.535s-0.627-0.121-0.797-0.392l-2.333-3.702zM29.795 4.676c-1.821-1.761-4.2-2.732-6.701-2.732-2.198 0-4.299 0.743-5.996 2.107-1.697-1.364-3.799-2.107-5.996-2.107-2.5 0-4.88 0.97-6.701 2.732-1.084 1.048-1.776 2.3-2.059 3.719-0.091 0.459 0.207 0.905 0.666 0.997s0.905-0.207 0.997-0.666c0.217-1.090 0.732-2.016 1.575-2.832 1.503-1.454 3.464-2.255 5.522-2.255 2.022 0 3.945 0.764 5.414 2.152 0.327 0.308 0.837 0.308 1.163 0 1.47-1.388 3.393-2.152 5.415-2.152 2.058 0 4.019 0.801 5.522 2.255 1.156 1.118 1.708 2.464 1.688 4.115-0.058 4.824-5.123 11.196-9.845 15.551-0.244 0.225-0.472 0.437-0.688 0.637-1.272 1.181-2.141 1.988-2.674 2.147-0.533-0.159-1.403-0.967-2.675-2.148-0.215-0.2-0.444-0.412-0.687-0.636-1.725-1.591-5.99-5.785-8.331-10.365-0.213-0.417-0.724-0.582-1.14-0.369s-0.582 0.724-0.369 1.14c2.465 4.823 6.899 9.187 8.691 10.839 0.242 0.223 0.469 0.434 0.683 0.632 1.773 1.646 2.662 2.472 3.718 2.611 0.037 0.005 0.074 0.007 0.11 0.007s0.074-0.002 0.11-0.007c1.056-0.139 1.945-0.965 3.717-2.61 0.214-0.199 0.441-0.41 0.684-0.633 2.417-2.229 10.31-10.027 10.391-16.776 0.025-2.112-0.716-3.913-2.205-5.353z"></path>
</symbol>
</defs>
</svg>
