<svg aria-hidden="true" style="position:absolute;width:0;height:0;overflow:hidden" xmlns="http://www.w3.org/2000/svg"><defs><symbol id="icon-drumsticks" viewBox="0 0 32 32"><path d="m31.353 27.875-.008-.008-12.291-11.912 9.477-9.779c.817-.084 1.64-.494 2.298-1.151.619-.618 1.022-1.389 1.136-2.17.123-.846-.113-1.638-.649-2.173C30.876.242 30.261 0 29.583 0c-.917 0-1.869.426-2.611 1.168-.663.663-1.072 1.49-1.152 2.312l-9.819 9.516L6.182 3.48c-.08-.822-.489-1.649-1.152-2.312C4.412.55 3.641.147 2.86.033 2.013-.09 1.221.146.686.682.15 1.217-.087 2.01.036 2.856c.114.781.517 1.551 1.136 2.17.66.66 1.481 1.068 2.298 1.151l9.477 9.778L.656 27.867l-.008.008a2.215 2.215 0 0 0-.641 1.695c.03.623.297 1.218.752 1.674.48.481 1.132.756 1.788.756.605 0 1.167-.229 1.582-.644l.008-.008 11.864-12.242 11.864 12.242.008.008a2.205 2.205 0 0 0 1.695.641c.624-.03 1.218-.297 1.674-.753s.723-1.05.753-1.674a2.215 2.215 0 0 0-.641-1.695zM4.422 5.109a.715.715 0 0 0-.61-.344h-.03c-.534 0-1.131-.279-1.602-.75-.397-.397-.664-.895-.733-1.367-.034-.232-.047-.666.247-.959s.727-.28.959-.246c.472.069.97.336 1.367.732.477.477.757 1.083.749 1.623a.707.707 0 0 0 .287.577l9.919 9.613-1.004.973-9.548-9.853zM3.116 30.35a.797.797 0 0 1-.57.223c-.28 0-.564-.123-.779-.338a1.12 1.12 0 0 1-.337-.733.808.808 0 0 1 .222-.616l25.27-24.49a.713.713 0 0 0 .309-.598c-.008-.539.272-1.146.749-1.623.47-.47 1.068-.75 1.602-.75.21 0 .506.046.724.264.293.292.28.726.246.958-.069.472-.336.97-.733 1.367-.47.47-1.069.75-1.603.75h-.03a.712.712 0 0 0-.61.344L3.115 30.349zm27.453-.847c-.013.268-.132.528-.337.733s-.465.324-.733.337a.806.806 0 0 1-.616-.222l-11.89-12.27 1.067-1.101 12.286 11.908a.81.81 0 0 1 .222.616z"/></symbol><symbol id="icon-metronome" viewBox="0 0 32 32"><path d="M28.724 4.752a.712.712 0 0 0-.354-.489l-1.147-.639.54-.969a.713.713 0 1 0-1.246-.694l-.54.969-1.147-.639a.714.714 0 0 0-1.022.391L22.401 6.77a.713.713 0 0 0 .327.855l.483.269-2.356 4.229-2.044-10.38C18.619.765 17.687-.001 16.69-.001h-5.712c-.996 0-1.928.766-2.121 1.744l-4.16 21.128-.001.004-1.399 7.106c-.102.516.021 1.033.336 1.416S4.431 32 4.957 32h17.752c.526 0 1.009-.22 1.324-.603s.438-.9.336-1.416l-1.399-7.107-1.69-8.583 3.176-5.701.483.269a.71.71 0 0 0 .9-.172l2.735-3.348a.71.71 0 0 0 .148-.585zM10.258 2.019c.061-.31.405-.593.721-.593h5.712c.316 0 .66.282.721.593l2.369 12.033-3.068 5.508a7.018 7.018 0 0 0-2.165-.547v-1.52h1.117a.713.713 0 1 0 0-1.426h-1.117v-4.2h1.117a.713.713 0 1 0 0-1.426h-1.117v-4.2h1.117a.713.713 0 1 0 0-1.426h-1.117V3.562a.713.713 0 1 0-1.426 0v1.253h-1.117a.713.713 0 1 0 0 1.426h1.117v4.2h-1.117a.713.713 0 1 0 0 1.426h1.117v4.2h-1.117a.713.713 0 1 0 0 1.426h1.117v1.52c-1.982.18-3.28 1.089-4.44 1.902-.804.564-1.526 1.069-2.397 1.281l3.973-20.178zm12.676 28.472c-.044.053-.123.083-.222.083H4.96c-.099 0-.178-.029-.222-.083s-.058-.137-.038-.234l1.292-6.56c1.442-.162 2.492-.898 3.511-1.612 1.229-.862 2.39-1.676 4.334-1.676s3.105.814 4.334 1.676c1.019.715 2.07 1.45 3.511 1.612l1.292 6.56c.019.098.006.181-.038.234zm-1.549-8.294c-.871-.212-1.593-.717-2.397-1.281a23.86 23.86 0 0 0-1.015-.685l2.235-4.012 1.177 5.979zM25.114 7.32l-1.169-.651.935-2.717 2.052 1.143-1.818 2.226z"/></symbol><symbol id="icon-pulse" viewBox="0 0 32 32"><path d="M6.239 12.75H.847a.847.847 0 1 1 0-1.694h5.859c.291 0 .562.149.717.396l1.688 2.679 2.599-6.634a.847.847 0 0 1 1.597.055l2.472 7.872.896-3.718a.847.847 0 0 1 .824-.649h4.207a.847.847 0 1 1 0 1.694h-3.539l-1.456 6.042a.846.846 0 0 1-.795.648h-.029a.846.846 0 0 1-.808-.594l-2.667-8.495-2.334 5.957a.845.845 0 0 1-1.506.143L6.239 12.75zm23.556-8.074c-1.821-1.761-4.2-2.732-6.701-2.732a9.539 9.539 0 0 0-5.996 2.107 9.54 9.54 0 0 0-5.996-2.107c-2.5 0-4.88.97-6.701 2.732-1.084 1.048-1.776 2.3-2.059 3.719a.849.849 0 0 0 1.663.331c.217-1.09.732-2.016 1.575-2.832 1.503-1.454 3.464-2.255 5.522-2.255 2.022 0 3.945.764 5.414 2.152a.847.847 0 0 0 1.163 0 7.857 7.857 0 0 1 5.415-2.152c2.058 0 4.019.801 5.522 2.255 1.156 1.118 1.708 2.464 1.688 4.115-.058 4.824-5.123 11.196-9.845 15.551l-.688.637c-1.272 1.181-2.141 1.988-2.674 2.147-.533-.159-1.403-.967-2.675-2.148l-.687-.636c-1.725-1.591-5.99-5.785-8.331-10.365a.847.847 0 1 0-1.509.771c2.465 4.823 6.899 9.187 8.691 10.839l.683.632c1.773 1.646 2.662 2.472 3.718 2.611a.823.823 0 0 0 .22 0c1.056-.139 1.945-.965 3.717-2.61.214-.199.441-.41.684-.633 2.417-2.229 10.31-10.027 10.391-16.776.025-2.112-.716-3.913-2.205-5.353z"/></symbol></defs></svg>